HIERARCHY
ROOT Pelvis
{
	OFFSET 0.000000 0.000000 0.000000
	CHANNELS 6 Xposition Yposition Zposition Xrotation Yrotation Zrotation
	JOINT LeftUpLeg_virtual
	{
		OFFSET 0.000000 0.000000 0.000000
		CHANNELS 3 Xrotation Yrotation Zrotation
		JOINT LeftUpLeg
		{
			OFFSET 8.479700 -4.795502 -0.379100
			CHANNELS 3 Xrotation Yrotation Zrotation
			JOINT LeftLeg
			{
				OFFSET 0.024144 -32.555107 0.112900
				CHANNELS 3 Xrotation Yrotation Zrotation
				JOINT LeftFoot
				{
					OFFSET -0.024144 -32.638630 -3.012600
					CHANNELS 3 Xrotation Yrotation Zrotation
					JOINT LeftToeBase
					{
						OFFSET 0.970200 -13.225400 11.864200
						CHANNELS 3 Xrotation Yrotation Zrotation
						End Site
						{
							OFFSET 0 0 0
						}
					}
				}
			}
		}
	}
	JOINT RightUpLeg_virtual
	{
		OFFSET 0.000000 0.000000 0.000000
		CHANNELS 3 Xrotation Yrotation Zrotation
		JOINT RightUpLeg
		{
			OFFSET -8.479700 -4.795502 -0.379100
			CHANNELS 3 Xrotation Yrotation Zrotation
			JOINT RightLeg
			{
				OFFSET -0.023144 -32.555092 0.112900
				CHANNELS 3 Xrotation Yrotation Zrotation
				JOINT RightFoot
				{
					OFFSET 0.023144 -32.638641 -3.012700
					CHANNELS 3 Xrotation Yrotation Zrotation
					JOINT RightToeBase
					{
						OFFSET -0.970200 -13.225400 11.864200
						CHANNELS 3 Xrotation Yrotation Zrotation
						End Site
						{
							OFFSET 0 0 0
						}
					}
				}
			}
		}
	}
	JOINT Hips_virtual
	{
		OFFSET 0.000000 0.000000 0.000000
		CHANNELS 3 Xrotation Yrotation Zrotation
		JOINT Hips
		{
			OFFSET -0.000000 -0.000000 -0.000000
			CHANNELS 3 Xrotation Yrotation Zrotation
			JOINT Spine
			{
				OFFSET 0.000000 7.722000 1.166200
				CHANNELS 3 Xrotation Yrotation Zrotation
				JOINT Spine1
				{
					OFFSET 0.000000 12.024101 0.248800
					CHANNELS 3 Xrotation Yrotation Zrotation
					JOINT Spine2
					{
						OFFSET 0.000000 11.502998 -0.491200
						CHANNELS 3 Xrotation Yrotation Zrotation
						JOINT Neck_virtual
						{
							OFFSET 0.000000 0.000000 0.000000
							CHANNELS 3 Xrotation Yrotation Zrotation
							JOINT Neck
							{
								OFFSET 0.000000 18.430702 -3.123100
								CHANNELS 3 Xrotation Yrotation Zrotation
								JOINT Head
								{
									OFFSET 0.000000 9.051102 1.034000
									CHANNELS 3 Xrotation Yrotation Zrotation
									End Site
									{
										OFFSET 0 0 0
									}
								}
							}
						}
						JOINT LeftShoulder_virtual
						{
							OFFSET 0.000000 0.000000 0.000000
							CHANNELS 3 Xrotation Yrotation Zrotation
							JOINT LeftShoulder
							{
								OFFSET 6.197800 13.665199 -4.064700
								CHANNELS 3 Xrotation Yrotation Zrotation
								JOINT LeftArm
								{
									OFFSET 7.778100 -0.187103 -1.709300
									CHANNELS 3 Xrotation Yrotation Zrotation
									JOINT LeftForeArm
									{
										OFFSET 22.049376 0.000000 0.000000
										CHANNELS 3 Xrotation Yrotation Zrotation
										JOINT LeftHand
										{
											OFFSET 23.009392 0.000000 0.000000
											CHANNELS 3 Xrotation Yrotation Zrotation
											End Site
											{
												OFFSET 0 0 0
											}
										}
									}
								}
							}
						}
						JOINT RightShoulder_virtual
						{
							OFFSET 0.000000 0.000000 0.000000
							CHANNELS 3 Xrotation Yrotation Zrotation
							JOINT RightShoulder
							{
								OFFSET -6.197800 13.665199 -4.064700
								CHANNELS 3 Xrotation Yrotation Zrotation
								JOINT RightArm
								{
									OFFSET -7.778100 -0.187103 -1.709300
									CHANNELS 3 Xrotation Yrotation Zrotation
									JOINT RightForeArm
									{
										OFFSET -22.049376 0.000000 0.000000
										CHANNELS 3 Xrotation Yrotation Zrotation
										JOINT RightHand
										{
											OFFSET -23.009392 0.000000 0.000000
											CHANNELS 3 Xrotation Yrotation Zrotation
											End Site
											{
												OFFSET 0 0 0
											}
										}
									}
								}
							}
						}
					}
				}
			}
		}
	}
}
MOTION
Frames: 8
Frame Time: 0.03333333
-2.069052 79.026695 -2.132612 0.000000 0.000000 0.000000 -6.265360 -26.222621 1.595815 -17.252482 9.608816 10.408635 30.577077 9.782322 1.664590 2.165497 18.868676 -10.518047 0.000000 0.000000 0.000000 -6.265360 -26.222621 1.595815 -13.268374 -32.884724 -14.492854 36.822967 7.115645 -6.492134 -22.185631 -19.829089 3.599472 0.000000 0.000000 0.000000 -6.265360 -26.222621 1.595815 0.000000 0.000002 0.000000 5.564246 -2.811514 -2.370854 1.469060 -2.839389 -0.460261 0.000000 0.000000 0.000000 1.463318 -2.694946 0.220315 2.455873 4.751728 1.127228 0.000000 0.000000 0.000000 1.463318 -2.694946 0.220315 -0.595443 -16.331995 -20.041824 12.420918 10.550277 -35.769714 -179.999841 -83.608120 -179.999855 0.000000 0.000000 0.000000 1.463318 -2.694946 0.220315 0.930388 18.037669 10.376102 6.836824 30.018931 41.382859 -179.992232 85.726435 179.992232 0.000000 0.000000 0.000000 
-2.351433 79.100624 -2.037605 0.000000 0.000000 0.000000 -6.319644 -26.919370 1.476510 -17.223516 9.540027 10.651423 30.988186 9.557590 1.670171 2.650619 19.617248 -10.377263 0.000000 0.000000 0.000000 -6.319644 -26.919370 1.476510 -12.669354 -32.662450 -14.023914 36.342214 7.130150 -6.467250 -22.151109 -19.489149 3.520690 0.000000 0.000000 0.000000 -6.319644 -26.919370 1.476510 0.000000 -0.000001 0.000000 5.593746 -2.695759 -2.334571 1.469656 -2.769742 -0.466833 0.000000 0.000000 0.000000 1.463645 -2.627369 0.198466 2.455876 4.751710 1.127230 0.000000 0.000000 0.000000 1.463645 -2.627369 0.198466 -0.595443 -16.331998 -20.041822 11.979360 10.162492 -35.915426 179.999131 -83.748904 179.999172 0.000000 0.000000 0.000000 1.463645 -2.627369 0.198466 0.928819 18.095133 10.321579 7.039712 29.557391 41.115034 -179.998011 85.245644 179.998024 0.000000 0.000000 0.000000 
-2.621330 79.177711 -1.944571 0.000000 0.000000 0.000000 -6.375504 -27.616210 1.359275 -17.104839 9.488699 10.875382 31.258620 9.431417 1.674940 3.133424 20.271824 -10.309363 0.000000 0.000000 0.000000 -6.375504 -27.616210 1.359275 -12.068143 -32.398879 -13.561390 35.838289 7.087207 -6.436641 -22.086470 -19.127513 3.472966 0.000000 0.000000 0.000000 -6.375504 -27.616210 1.359275 0.000000 0.000001 0.000000 5.620916 -2.568741 -2.302225 1.470253 -2.697862 -0.473616 0.000000 0.000000 0.000000 1.463942 -2.557625 0.176189 2.455875 4.751714 1.127230 0.000000 0.000000 0.000000 1.463942 -2.557625 0.176189 -0.595443 -16.331997 -20.041821 11.555125 9.778312 -36.062309 -179.998803 -83.889708 -179.998844 0.000000 0.000000 0.000000 1.463942 -2.557625 0.176189 0.926479 18.152628 10.275618 7.261008 29.087535 40.849172 -179.999021 84.752559 179.999035 0.000000 0.000000 0.000000 
-2.878084 79.256287 -1.855011 0.000000 0.000000 0.000000 -6.433013 -28.313029 1.242427 -17.025901 9.462017 11.019954 31.451778 9.397347 1.676092 3.561025 20.610869 -10.233701 0.000000 0.000000 0.000000 -6.433013 -28.313029 1.242427 -11.472886 -32.098587 -13.108779 35.321149 6.994096 -6.401055 -21.997174 -18.746011 3.451212 0.000000 0.000000 0.000000 -6.433013 -28.313029 1.242427 0.000000 0.000001 0.000000 5.646415 -2.433104 -2.271567 1.470858 -2.625028 -0.480489 0.000000 0.000000 0.000000 1.464210 -2.487020 0.153859 2.455876 4.751706 1.127231 0.000000 0.000000 0.000000 1.464210 -2.487020 0.153859 -0.595443 -16.331998 -20.041824 11.157875 9.410632 -36.208954 179.999404 -84.026141 179.999459 0.000000 0.000000 0.000000 1.464210 -2.487020 0.153859 0.923533 18.206699 10.240314 7.499870 28.626716 40.584666 -179.999568 84.259290 179.999554 0.000000 0.000000 0.000000 
-3.075064 79.331741 -1.769802 0.000000 0.000000 0.000000 -6.492116 -29.006437 1.122939 -17.167009 9.462765 11.010965 31.718657 9.404030 1.669044 3.858268 20.495892 -10.022884 0.000000 0.000000 0.000000 -6.492116 -29.006437 1.122939 -10.948626 -31.741255 -12.715118 34.834747 6.849715 -6.361790 -21.863266 -18.351030 3.478197 0.000000 0.000000 0.000000 -6.492116 -29.006437 1.122939 0.000000 0.000001 0.000000 5.664200 -2.257394 -2.240199 1.471477 -2.547698 -0.487784 0.000000 0.000000 0.000000 1.464451 -2.412446 0.130487 2.455875 4.751719 1.127230 0.000000 0.000000 0.000000 1.464451 -2.412446 0.130487 -0.595442 -16.332002 -20.041821 10.825691 9.127648 -36.348846 179.998776 -84.145526 179.998844 0.000000 0.000000 0.000000 1.464451 -2.412446 0.130487 0.917854 18.249082 10.245467 7.737184 28.253511 40.318139 -179.999035 83.843967 179.998980 0.000000 0.000000 0.000000 
-3.258731 79.409065 -1.685070 0.000000 0.000000 0.000000 -6.553045 -29.711921 1.000488 -17.439399 9.485430 10.897914 31.970500 9.431323 1.655654 4.077161 19.993417 -9.736850 0.000000 0.000000 0.000000 -6.553045 -29.711921 1.000488 -10.434154 -31.351651 -12.334912 34.337632 6.676261 -6.318869 -21.707016 -17.940204 3.524731 0.000000 0.000000 0.000000 -6.553045 -29.711921 1.000488 0.000000 0.000000 0.000000 5.680354 -2.067374 -2.208970 1.472114 -2.469040 -0.495209 0.000000 0.000000 0.000000 1.464667 -2.336636 0.106900 2.455874 4.751711 1.127229 0.000000 0.000000 0.000000 1.464667 -2.336636 0.106900 -0.595443 -16.332003 -20.041821 10.521532 8.864603 -36.480259 179.999404 -84.255431 179.999390 0.000000 0.000000 0.000000 1.464667 -2.336636 0.106900 0.911198 18.289881 10.261730 7.981244 27.895015 40.052998 -179.999500 83.434661 179.999486 0.000000 0.000000 0.000000 
-3.430362 79.487785 -1.601189 0.000000 0.000000 0.000000 -6.615849 -30.423623 0.876318 -17.804816 9.526802 10.700698 32.173903 9.445251 1.637102 4.247801 19.172293 -9.398772 0.000000 0.000000 0.000000 -6.615849 -30.423623 0.876318 -9.929026 -30.931980 -11.968022 33.831020 6.471620 -6.272213 -21.531458 -17.515778 3.589226 0.000000 0.000000 0.000000 -6.615849 -30.423623 0.876318 -0.000001 0.000000 0.000000 5.694860 -1.866225 -2.178679 1.472776 -2.389305 -0.502735 0.000000 0.000000 0.000000 1.464857 -2.259784 0.083149 2.455876 4.751719 1.127230 0.000000 0.000000 0.000000 1.464857 -2.259784 0.083149 -0.595443 -16.331997 -20.041817 10.244579 8.618142 -36.601686 179.999991 -84.357358 179.999991 0.000000 0.000000 0.000000 1.464857 -2.259784 0.083149 0.903766 18.328833 10.287282 8.228547 27.551344 39.791965 -179.999500 83.035334 179.999513 0.000000 0.000000 0.000000 
-3.591127 79.567451 -1.518557 0.000000 0.000000 0.000000 -6.680556 -31.135581 0.751661 -18.223682 9.584030 10.438323 32.294917 9.410643 1.614404 4.403779 18.101053 -9.034768 0.000000 0.000000 0.000000 -6.680556 -31.135581 0.751661 -9.433492 -30.485436 -11.614907 33.317062 6.234591 -6.221892 -21.340011 -17.079913 3.669865 0.000000 0.000000 0.000000 -6.680556 -31.135581 0.751661 0.000000 0.000000 0.000001 5.707694 -1.657272 -2.150069 1.473489 -2.308731 -0.510340 0.000000 0.000000 0.000000 1.465026 -2.182181 0.059289 2.455875 4.751706 1.127231 0.000000 0.000000 0.000000 1.465026 -2.182181 0.059289 -0.595443 -16.331997 -20.041821 9.993810 8.384801 -36.711860 -179.999527 -84.453411 -179.999541 0.000000 0.000000 0.000000 1.465026 -2.182181 0.059289 0.895758 18.365691 10.320295 8.475632 27.222754 39.537510 -179.999978 82.649715 -179.999991 0.000000 0.000000 0.000000 
